<?xml version="1.0" encoding="UTF-8" standalone="no"?>
<svg
   xmlns:dc="http://purl.org/dc/elements/1.1/"
   xmlns:cc="http://creativecommons.org/ns#"
   xmlns:rdf="http://www.w3.org/1999/02/22-rdf-syntax-ns#"
   xmlns:svg="http://www.w3.org/2000/svg"
   xmlns="http://www.w3.org/2000/svg"
   xmlns:sodipodi="http://sodipodi.sourceforge.net/DTD/sodipodi-0.dtd"
   xmlns:inkscape="http://www.inkscape.org/namespaces/inkscape"
   viewBox="0 0 118.92933 60.537465"
   height="60.537464"
   width="118.92933"
   xml:space="preserve"
   id="svg2"
   version="1.1"
   sodipodi:docname="LOGO-TPP.svg"
   inkscape:version="0.92.4 (5da689c313, 2019-01-14)"><sodipodi:namedview
     pagecolor="#ffffff"
     bordercolor="#666666"
     borderopacity="1"
     objecttolerance="10"
     gridtolerance="10"
     guidetolerance="10"
     inkscape:pageopacity="0"
     inkscape:pageshadow="2"
     inkscape:window-width="1920"
     inkscape:window-height="1017"
     id="namedview117"
     showgrid="false"
     inkscape:pagecheckerboard="true"
     fit-margin-top="0"
     fit-margin-left="0"
     fit-margin-right="0"
     fit-margin-bottom="0"
     inkscape:zoom="0.8380907"
     inkscape:cx="211.09926"
     inkscape:cy="-106.06518"
     inkscape:window-x="-8"
     inkscape:window-y="-8"
     inkscape:window-maximized="1"
     inkscape:current-layer="g12" /><metadata
     id="metadata8"><rdf:RDF><cc:Work
         rdf:about=""><dc:format>image/svg+xml</dc:format><dc:type
           rdf:resource="http://purl.org/dc/dcmitype/StillImage" /><dc:title /></cc:Work></rdf:RDF></metadata><defs
     id="defs6" /><g
     transform="matrix(1.3333333,0,0,-1.3333333,-183.64745,93.209415)"
     id="g10"><g
       transform="scale(0.1)"
       id="g12"><path
         inkscape:connector-curvature="0"
         id="path16"
         style="fill:#23608c;fill-opacity:1;fill-rule:evenodd;stroke:none;stroke-width:0.99999994"
         d="m 1700.0159,581.02363 c 10.26,-19.03099 25.42,-5.45299 31.08,1.067 -8.39,-5.211 -25.76,-5.29299 -31.08,-1.067" /><path
         inkscape:connector-curvature="0"
         id="path18"
         style="fill:#23608c;fill-opacity:1;fill-rule:evenodd;stroke:none;stroke-width:0.99999994"
         d="m 1913.4059,597.25063 c 13.44,-19.168 51.55,-18.09 52.36,4.18001 -8.2,-8.94201 -36.03,-12.27 -52.36,-4.18001" /><path
         inkscape:connector-curvature="0"
         id="path20"
         style="fill:#23608c;fill-opacity:1;fill-rule:evenodd;stroke:none;stroke-width:0.99999994"
         d="m 1755.8159,609.09463 c -20.22,-4.446 -47.41,-4.305 -64.56,16.699 -0.05,-0.035 -0.1,-0.067 -0.1,-0.067 -4.84,-31.21801 48.18,-33.035 64.66,-16.63201" /><path
         inkscape:connector-curvature="0"
         id="path22"
         style="fill:#23608c;fill-opacity:1;fill-rule:evenodd;stroke:none;stroke-width:0.99999994"
         d="m 1744.9659,597.25063 c -16.34,-8.08999 -44.16,-4.762 -52.36,4.18001 0.81,-22.27001 38.93,-23.34801 52.36,-4.18001" /><path
         inkscape:connector-curvature="0"
         id="path24"
         style="fill:#23608c;fill-opacity:1;fill-rule:evenodd;stroke:none;stroke-width:0.99999994"
         d="m 1927.2659,582.09063 c 5.68,-6.51999 20.83,-20.09799 31.08,-1.067 -5.31,-4.22599 -22.67,-4.144 -31.08,1.067" /><path
         inkscape:connector-curvature="0"
         id="path26"
         style="fill:#23608c;fill-opacity:1;fill-rule:evenodd;stroke:none;stroke-width:0.99999994"
         d="m 1839.6559,359.38363 1.31,57.08601 c 45.03,-8.34401 44.82,-50.043 -1.31,-57.08601 z m -20.93,0 c -46.15,7.04301 -46.34,48.742 -1.3,57.08601 z m 131.02,-80.74999 c 136.44,36.83599 175.21,239.96499 1.01,289.28499 180.8499,-112.375 51.53,-307.96899 -117.84,-303.903 -215.5,5.16501 -312.7,240.81701 -141.8,361.676 0.01,0.082 0,0.153 0.01,0.235 0.04,-0.051 0.09,-0.082 0.1299,-0.133 2.31,1.633 4.48,3.332 6.89,4.922 15.93,-22.50799 55.91,-17.30899 79.3,-14.325 -9.97,-13.75699 -61.54,-53.00299 -39.36,-70.57 5.55,-6.82399 33.11,-8.04699 43.93,-1.96099 -10.53,-14.70701 -28.2,-25.22601 -46.86,-24.83201 l -1.84,-4.23 86.1,0.0353 c 2.1,0 2.41,-3.371 2.24,-4.016 -1.16,-4.449 -6.06,-3.14 -6.05,-3.933 l 0.87,-68.789 c -22.72,4.578 -47.06,12.382 -55.81,33.105 -5.29,37.531 44.31,14.469 10.19,2.59 25.19,-27.652 59.35,27.133 4.94,33.191 -22.31,-1.351 -29.56,-9.105 -34.61,-17.211 -13.61,-30.523 21.43,-56.574 53.75,-65.011 -60.52,-18.293 -43.66,-68.879 15.43,-76.817 -19.06,-9.906 -55.94,-46.172 -22.92,-67.488 30.25,-9.547 33.9,33.121 10.24,27.684 19.42,-32.77 -49.79,-8.832 21.63,23.964 l 1.16,-52.492 c 1.33,-10.465 16.08,-10.465 17.43,0 l 1.15,52.492 c 71.42,-32.796 2.21,-56.734 21.65,-23.964 -23.67,5.437 -20.01,-37.231 10.24,-27.684 32.98,21.316 -3.87,57.582 -22.94,67.488 59.08,7.938 75.95,58.524 15.43,76.817 32.33,8.437 67.36,34.488 53.76,65.011 -5.07,8.106 -12.32,15.86 -34.61,17.211 -54.42,-6.058 -20.26,-60.843 4.93,-33.191 -34.12,11.879 15.48,34.941 10.19,-2.59 -8.76,-20.723 -33.07,-28.527 -55.8,-33.105 l 0.86,68.789 c 0.01,0.793 -4.89,-0.516 -6.06,3.933 -0.15,0.645 0.16,4.016 2.26,4.016 l 86.08,-0.0353 -1.83,4.23 c -18.66,-0.39397 -36.32,10.125 -46.85,24.83201 10.81,-6.086 38.38,-4.863 43.92,1.96099 22.18,17.56701 -29.39,56.81301 -39.35,70.57 41.94,-5.515 84.68,-6.73399 88.69,41.481 -1.36,0 -6.86,-0.164 -8.8,0 -18.16,-28.238 -47.59,-28.531 -67.17,-24.684 -28.22,5.868 -56.07,-12.25699 -21.91,-42.199 15.66,-13.715 48.98,-48.40999 -0.18,-40.91 -17.58,31.41 -67.19,31.41 -84.75,0 -49.16,-7.49999 -15.85,27.195 -0.2,40.91 34.17,29.94201 6.31,48.067 -21.89,42.199 -14.28,-2.808 -33.83,-3.336 -50.39,7.465 h 0.01 c 1.17,0.66 2.3,1.301 3.48,1.965 137.14,70.891 505.31,15.723 509.93,-165.492 3.42,-134.44499 -208.22,-193.504 -278.01,-198.49199 z m -531.96,189.76499 c -0.06,109.012 148.01,197.157 353.84,204.805 -25.58,-3.441 -49.51,-10.02 -71.34,-19.246 h -0.01 c -0.94,1.254 -1.83,2.543 -2.72,3.914 -1.94,-0.164 -7.45,0 -8.81,0 0.3699,-2.922 0.91,-5.734 1.51,-8.375 -204.62,-104.69499 -138.92,-346.652 66.08,-382.16 l 0.39,-0.231 c -188.92,16.891 -338.9,99.32101 -338.94,201.293 z m 405.56,230.672 c -246.31,0 -445.99,-101.64 -445.99,-227.015 0,-125.37899 199.68,-227.01599 445.99,-227.01599 246.31,0 445.98,101.637 445.98,227.01599 0,125.375 -199.67,227.015 -445.98,227.015" /><path
         inkscape:connector-curvature="0"
         id="path28"
         style="fill:#23608c;fill-opacity:1;fill-rule:evenodd;stroke:none;stroke-width:0.99999994"
         d="m 1902.5559,609.09463 c 16.52,-16.446 69.84,-14.524 64.74,16.91 -17.13,-21.168 -44.47,-21.36399 -64.74,-16.91" /></g></g></svg>